<?xml version="1.0" standalone="no"?>
<!DOCTYPE svg PUBLIC "-//W3C//DTD SVG 20010904//EN"
 "http://www.w3.org/TR/2001/REC-SVG-20010904/DTD/svg10.dtd">
<svg version="1.0" xmlns="http://www.w3.org/2000/svg"
 width="260.000000pt" height="260.000000pt" viewBox="0 0 260.000000 260.000000"
 preserveAspectRatio="xMidYMid meet">
<metadata>
Created by potrace 1.11, written by Peter Selinger 2001-2013
</metadata>
<g transform="translate(0.000000,260.000000) scale(0.100000,-0.100000)"
fill="#000000" stroke="none">
<path d="M0 1300 l0 -1300 1300 0 1300 0 0 1300 0 1300 -1300 0 -1300 0 0
-1300z m1148 473 l-3 -58 -172 -3 -173 -2 0 -470 0 -470 -60 0 -60 0 0 470 0
470 -175 0 -175 0 0 60 0 60 410 0 411 0 -3 -57z m988 -468 c128 -286 233
-523 234 -527 0 -5 -29 -8 -64 -8 l-63 0 -59 135 -59 135 -290 0 -290 0 -59
-135 -59 -135 -64 0 c-36 0 -63 4 -61 9 2 5 109 244 238 530 l235 522 63 -3
64 -3 234 -520z"/>
<path d="M1809 1635 c-87 -193 -207 -470 -206 -472 1 -1 106 -2 232 -3 190 -2
229 0 227 11 -4 16 -197 450 -217 489 l-14 25 -22 -50z"/>
</g>
</svg>
